<svg xmlns="http://www.w3.org/2000/svg" width="160" height="160" viewBox="0 0 160 160">
  <!-- Generated by scripts/docs/generate-sayagata.ts -->
  <path d="M4,0 L4,60 L28,60 L28,44 L36,44 L36,60 L52,60 L52,68 L0,68 L0,76 L60,76 L60,52 L44,52 L44,44 L60,44 L60,28 L68,28 L68,80 L68,132 L60,132 L60,116 L44,116 L44,108 L60,108 L60,84 L0,84 L0,92 L52,92 L52,100 L36,100 L36,116 L28,116 L28,100 L4,100 L4,160 L12,160 L12,108 L20,108 L20,124 L36,124 L36,132 L20,132 L20,156 L80,156 L140,156 L140,132 L124,132 L124,124 L140,124 L140,108 L148,108 L148,160 L156,160 L156,100 L132,100 L132,116 L124,116 L124,100 L108,100 L108,92 L160,92 L160,84 L100,84 L100,108 L116,108 L116,116 L100,116 L100,132 L92,132 L92,80 L92,28 L100,28 L100,44 L116,44 L116,52 L100,52 L100,76 L160,76 L160,68 L108,68 L108,60 L124,60 L124,44 L132,44 L132,60 L156,60 L156,0 L148,0 L148,52 L140,52 L140,36 L124,36 L124,28 L140,28 L140,4 L80,4 L20,4 L20,28 L36,28 L36,36 L20,36 L20,52 L12,52 L12,0 Z M28,12 L80,12 L132,12 L132,20 L116,20 L116,36 L108,36 L108,20 L84,20 L84,80 L84,140 L108,140 L108,124 L116,124 L116,140 L132,140 L132,148 L80,148 L28,148 L28,140 L44,140 L44,124 L52,124 L52,140 L76,140 L76,80 L76,20 L52,20 L52,36 L44,36 L44,20 L28,20 Z" fill="none" stroke="#d4c9a8" stroke-width="2" stroke-linecap="square" stroke-linejoin="miter" />
</svg>
